<?xml version='1.0' encoding='utf-8'?>
<svg xmlns="http://www.w3.org/2000/svg" width="210mm" height="297mm" clip-rule="evenodd" fill-rule="evenodd" image-rendering="optimizeQuality" shape-rendering="geometricPrecision" text-rendering="geometricPrecision" version="1.1" viewBox="0 0 21000 29700">
 <defs>
  <style type="text/css">
   
    .fil8 {fill:#B01800}
    .fil3 {fill:#D81000}
    .fil1 {fill:#E83000}
    .fil0 {fill:#F76000}
    .fil7 {fill:#FE9018}
    .fil6 {fill:#FEA828}
    .fil10 {fill:#FF7800}
    .fil9 {fill:#FFD078}
    .fil4 {fill:#FFD840}
    .fil2 {fill:#FFE858}
    .fil5 {fill:#FFF8B0}
   
  </style>
 </defs>
   <path class="fil0" d="m12099 18200c-3316 279-3516-110-5199-2869 208 553 416 998 686 1523-1651-1245 1339 1190 1432 1264 684 541 1375 547 2212 843-24 176-2093-412-2377-550-1548-755-1911-2444-2680-3832-771-1393 834 2628-203 730-889-1628-180 1392 1237 2690 663 607 1427 989 2224 1383-1063-771-1851-1427-2790-2346 1891 1744 1605 1615 4058 2344 874 260-245 212 253-93 781-385 2216-533 2505-1311 165-443 854-830 520-704-298 112-1598 774-1879 928z"/>
   <path class="fil1" d="m14676 14744c-275 1245-527 1242-782 2090-258 858 1235-26-968 1336-891 551-2209 1264-215 510 1821-688 2416-1663 2440-3831-128 823-61 1144-421 188-172 497-62-30-54-293z"/>
   <path class="fil0" d="m15027 15783c-255 1716-417 1911-1711 3043 2993-2654 2342-4618 573-7797 498 2302 1191 1831 1137 4754z"/>
   <path class="fil2" d="m9859 9403c31-634-944-129-1347 11-1513 558-2039 944-2766 2401 1733-1606 1879-1669 4113-2412z"/>
   <path class="fil3" d="m14711 15237c1064 412 544-567 351-1251-671-2383-390 155-364 979 3 90 8 181 12 271z"/>
   <path class="fil4" d="m10110 9626c-3102 598-4683 813-4417 4430 260 1767 424-1434 441-1615 356-1419 892-1697 2168-2283-2365 1789-576 918 859 333 560-228 613-376 948-865z"/>
   <path class="fil5" d="m9253 9056c-2064 283-2575 340-3488 2316 1365-1848 1401-1528 3496-2170 222-70 163-85-7-146z"/>
   <path class="fil6" d="m6902 16005c-990-2813-837-2724 824-5105 333-514-1093 1154-1260 1583-334 3283 416 5546 3861 6408 1318 293-1375-747-1499-814-922-498-1369-1225-1926-2072z"/>
   <path class="fil7" d="m5621 12030c-142 781-255 1547-363 2333-521-428-159-74 38 411 1246 2843 524-27 368-1198l-21-270c-19-415-16-858-22-1276z"/>
   <path class="fil8" d="m13843 11577c-239-313-533-674-809-954 211 289 557 668 809 954z"/>
   <path class="fil1" d="m13843 11577c681 900 598 688-16-31-336-393-115-75 16 31z"/>
   <path class="fil9" d="m5621 12030c-334-1242-385 793-403 1059-142 2075-15 1559 214-10 51-352 119-700 189-1048z"/>
   <path class="fil7" d="m6278 12504c641-1466 874-1638 2315-2302-2048 1232-3493 2503-2590 5103 447 852 196-675 171-921-26-299-57-598-86-896 17-351 101-647 191-983z"/>
   <path class="fil0" d="m5756 15801c-43-1618-18-1959 891-3325-650 407-646 661-398-149-388 143-522 2018-593 2457-133 26 115-1934 256-2276 297-597 772-1045 1200-1553-217-248-12-479 185-820 310-538 369-793 783-1333 613-799-680 75-1082 771-326 563 1034-1044 30 548-216 323-920 1284-1001 1575 108 0-182 287-272 550-384 1334-477 3724 477 4831 1008 1169-233 85-475-1275z"/>
   <path class="fil10" d="m8835 11317c-884-173-932 64-787-266 397-909-1766 1129-2010 1842 708-518 703-805 203 315-532 1194-633 2350-191 3584-626-2471-43-3579 2039-4938 262-171 500-344 746-537z"/>
   <path class="fil1" d="m9250 19008c-1672-822-2951-1241-3508-3162 387 1040 153 893 982 1740-1454-1630-1412-3002-1e3 -5048 27-125 469-1454 152-632-570 1620-817 4473 716 5665 152 118 3313 2181 1622 916 184 101 1432 1019 857 451-110-109 139 47 179 69z"/>
   <path class="fil0" d="m7943 18453c-2811-1587-2248-2067-2501-4977 52 1370-147 3154 1056 4095 731 571 2687 2041 3588 1918-7-6-1831-869-2142-1035z"/>
   <path class="fil2" d="m8343 10511c279 729 37 156 673 233 409 50-2-278-44-573-47-340 54-1464-630-941-382 291-562 944 1 1282z"/>
   <path class="fil3" d="m9250 19008c-433-143-12-52-836-393-578-239 739 456 772 470 1674 718 2789 187 4354-663 2623-1425-747 284-1225 496-1128 501-1901 509-3065 89z"/>
   <path class="fil4" d="m8022 10809c671-648-149 207 65-1164 163-706 344-253 600-574-793 257-1196 539-1457 1352 1292-975-195 440-52 761 100 224 88-57 0 217-52 162 714-486 844-592z"/>
   <path class="fil6" d="m8835 11317c688-729 1157-1288 651-2309-390-787 106 768 17 1083-203 714-372 601-965 703-317 54-6-554-586 42 24 85 345-104-19 382 389-104 537-52 902 98z"/>
   <path class="fil5" d="m9240 10497c433-642 373-693 119-1405-872 30-372 6-379 1203-2 242 6 206 260 202z"/>
   <path class="fil6" d="m6322 12279c1015-851 1067-1573 429-1001-999 1138-1086 2136-1116 3581 71-1320 12-1413 687-2580z"/>
   <path class="fil7" d="m8677 9027c-132-407-9-326 400-327-1002-228-1116-100-1519 887-245 600 295-263 1119-561z"/>
   <path class="fil8" d="m13479 18549c-1744 859-2560 1264-4527 783 1785 458 2652 215 4280-598 78-39 246-108 303-186l-56 1z"/>
   <path class="fil1" d="m13479 18549c-1481 663-2100 914-3751 941 1719 133 2264-162 3751-941z"/>
   <path class="fil9" d="m8677 9027c169 135 780 272 634-282-64-245-468-53-703-4 13 130 24 166 69 287z"/>
   <path class="fil7" d="m7149 10928c175 548 496-736 514-865-660 417-169 420-445 196-89 139-369 642-69 669z"/>
   <path class="fil0" d="m5539 15039c118 559 194 819 439 1337-461-1232-570-1994-297-3297-983 4491 3788 7788 7419 5483-366 185-668 343-1066 468 4621-1662 4356-7719-493-8801 2257 307 3706 2221 3827 4377-8-272-251-1782-39-755 754 3658-3380 6723-6980 5e3 -1603-767-2515-2113-2811-3811z"/>
   <path class="fil10" d="m9195 9410c-4276 1665-4922 6903-1104 9203 691 416-311-161-455-264-1756-1252-2375-3202-1958-5244-381 1521-30-296 240-864 631-1326 2161-2785 3667-3013 295-45-326 158-390 181z"/>
   <path class="fil1" d="m5427 14202c214-1097 1-200 64 497 522 5797 8663 6194 9808 863 113-526 103-920 69-1454 642 4339-5096 7085-8340 3895-1028-1011-1605-2380-1601-3801z"/>
   <path class="fil0" d="m9520 19290c-438-117 683 73 902 76 2666 35 4669-1779 4984-4333-321 4579-6588 5948-9054 2361-143-208 494 525 552 578 757 701 1605 1117 2616 1319z"/>
   <path class="fil2" d="m6467 17092c-1198-1880-1185-3933 134-5750-3570 5227 3207 10385 7276 6505 755-719 895-1198 1269-2100-940 3782-6054 4795-8679 1345z"/>
   <path class="fil3" d="m5427 14202c49 2031 772 3171 2368 4383 171 130-560-358-623-411-1016-847-1997-2567-1780-3885l35-88z"/>
   <path class="fil4" d="m6330 16905c1712 2391 4843 3142 7229 1273 847-663 1266-1403 1590-2381-409 2322-3328 3928-5810 3302-1340-338-2265-1067-3009-2194z"/>
   <path class="fil6" d="m9195 9411c-2925 1203-4461 4238-3041 7072 1856 3704 7465 3638 8921-654 147-433-76 286-115 381-2079 5077-9828 3122-9311-2379 69-736 268-1282 598-1940-857 1663-899 3387 94 5020 318 524-361-660-446-893-1036-2802 525-5518 3302-6607z"/>
   <path class="fil5" d="m5842 12843c-727 2783 705 5555 3626 6202 2305 510 4270-565 5370-2538-420 1252-2019 2304-3322 2577-3677 770-6695-2592-5674-6241z"/>
   <path class="fil6" d="m8586 18875c-701-334-1133-630-1679-1174 1842 1781 4232 2048 6436 686-1357 1074-3191 1127-4757 488z"/>
   <path class="fil7" d="m15186 15594c285-1478-10-3137-1630-4479 956 465 1699 2163 1772 3195 40 564 9 790-141 1284z"/>
   <path class="fil8" d="m5303 14603c37 788 159 1205 483 1943-455-967-841-2368-415-3395-41 565-109 841-69 1452z"/>
   <path class="fil1" d="m5303 14603c119 959 343 1608 845 2433 312 512-232-228-370-549-296-687-400-1144-474-1884z"/>
   <path class="fil9" d="m15186 15594c-6 6-370 974-426 1079-120 227-1081 1549-394 619 1017-1376 1058-2639 643-4198-108-408 240 817 261 976 69 533 16 1001-84 1525z"/>
   <path class="fil7" d="m12226 18958c-557 172-877 249-1468 286 1791-153 3040-917 3990-2383-282 874-1669 1763-2522 2098z"/>
   <path class="fil0" d="m6565 10951c1246-706 559-722 812-994 225 139-198 1111 332 704-206 546-174 510-632 864 798 83 656-265 1079-685 360 72-294 740 481 295 609 570 1091 470-414 1171-24-20 696-825 164-628-127 47-1049 942-716 489-334 112-1670-662-1162-954 268-154-50-53 56-262z"/>
   <path class="fil10" d="m8551 8611c-40 142-208 497-121 620-399 539 9 7 138 409-1273 1333-963 1575-1155 359-982 233-515 1045-1305 979 795-1050 886-1979 2204-2358 81-15 159-11 241-9z"/>
   <path class="fil1" d="m5934 11886c193-570 800-1343 500-641-202 473 773 884 1113 915 407 36 41 179-295 378-766 455-625-195-876 330-155-380 188-1317-308-727-24-127 88-306-133-254z"/>
   <path class="fil0" d="m6464 12808c26-377-132-49 694-125 9 84-513 358-535 1319-21 906-165-892-175 95-2 148 90 1066-133 1045-140-328-194-1500-72-1838 60-166 145-337 221-496z"/>
   <path class="fil2" d="m8836 9551c-422-836 14-180 130-585 12-183 472-228 268 48-19 311 901 1489-43 1754-229 64-471-782-355-1216z"/>
   <path class="fil3" d="m5934 11886c335-127-161 289 214 100 438-220 81 1413-195 1461-234-501-208-1057-20-1561z"/>
   <path class="fil4" d="m8571 9655c407-167 155 138 443 900 263 695 276-203 487 48 111 131-1817 1177-802 166 103-102 25-351-413-164-280 119 48 30-129-330-128-259 180-416 413-619z"/>
   <path class="fil6" d="m8551 8611c994 22 1635 373 1540 1519-27 333-166 712-137 55 42-949-37-938-845-1405-344 391 202 42-471 434 357 624 132 191-97 486-83-565 228 135-258-286 127-265 209-507 268-803z"/>
   <path class="fil5" d="m9333 8923c638 377 1017 1146 236 1566-81-535 162-714-313-1265-128-149-69-162 77-301z"/>
   <path class="fil6" d="m7709 10662c590-1011 374-296 584 105-141 135-1002 980-1180 793 34-110 365-264 595-897z"/>
   <path class="fil7" d="m9497 10724c-67 526-91 464 307 128-253 379-473 1029-1020 526-348-320 75-285 443-488 94-52 181-109 270-166z"/>
   <path class="fil8" d="m5865 14156c240 661 349 766 353 1565-9 5-555-877-353-1565z"/>
   <path class="fil1" d="m5865 14156c62-1961 645 1734 56 150l-56-150z"/>
   <path class="fil9" d="m9497 10724c59-288 231-341 462-499-20 782 128 460-492 903 5-138 16-267 30-404z"/>
   <path class="fil7" d="m8293 10767c-156-180 135-222 321-307 311 673-410 282-141 764-347 162-136 155-229-379 4 3 39-62 49-78z"/>
</svg>